<?xml version="1.0" standalone="no"?>
<!DOCTYPE svg PUBLIC "-//W3C//DTD SVG 20010904//EN"
 "http://www.w3.org/TR/2001/REC-SVG-20010904/DTD/svg10.dtd">
<svg version="1.0" xmlns="http://www.w3.org/2000/svg"
 width="1920.000000pt" height="1080.000000pt" viewBox="0 0 1920.000000 1080.000000"
 preserveAspectRatio="xMidYMid meet">

<g transform="translate(0.000000,1080.000000) scale(0.100000,-0.100000)"
fill="#000000" stroke="none">
<path d="M6345 10102 c-297 -106 -742 -334 -1024 -526 -114 -77 -258 -208
-327 -297 -60 -78 -111 -184 -136 -281 -30 -122 -18 -303 25 -363 12 -16 13 0
9 106 -5 148 8 215 68 334 82 164 218 293 467 443 323 195 893 451 1042 469
89 10 163 -31 205 -116 87 -170 84 -398 -18 -1466 -37 -380 -46 -540 -46 -788
0 -326 26 -566 90 -822 38 -148 71 -210 135 -250 41 -25 58 -30 109 -29 38 1
79 9 110 23 65 29 270 169 603 413 472 347 632 450 888 574 184 89 336 146
378 142 22 -2 35 -11 44 -28 6 -14 33 -70 59 -125 41 -87 58 -110 138 -191 77
-76 106 -98 186 -137 107 -53 177 -73 282 -82 117 -10 136 -14 169 -42 17 -15
237 -336 490 -714 254 -381 470 -696 486 -707 36 -25 67 -34 114 -34 51 1 89
22 184 102 228 193 401 295 547 325 195 39 321 5 473 -126 155 -134 252 -182
398 -198 98 -11 193 -4 432 34 134 21 195 26 286 23 108 -4 120 -6 193 -41
222 -105 366 -397 407 -822 23 -246 -15 -540 -106 -804 -44 -130 -26 -130 40
0 134 263 192 638 150 962 -30 231 -92 417 -186 557 -173 259 -388 330 -807
268 -96 -14 -197 -22 -292 -22 -134 -1 -150 1 -206 25 -93 39 -158 94 -180
153 -11 28 -33 64 -49 80 l-31 31 25 60 c33 80 41 220 17 293 -19 57 -53 105
-67 97 -5 -4 -9 -39 -9 -80 l0 -73 -44 0 c-43 0 -108 -25 -153 -58 -23 -16
-23 -16 -23 18 0 82 -70 198 -120 198 -25 0 -25 -2 1 -75 29 -83 24 -191 -11
-260 l-26 -49 -80 -12 c-217 -31 -392 -119 -648 -328 l-119 -97 -81 123 c-45
68 -243 371 -441 673 -235 359 -379 570 -415 606 -68 70 -130 95 -272 108
-126 13 -185 30 -263 76 -111 67 -186 157 -240 290 -54 132 -103 183 -195 204
-57 13 -126 0 -265 -51 -306 -111 -610 -289 -1051 -614 -274 -203 -449 -330
-462 -338 -15 -9 -18 -17 69 183 29 68 60 126 68 129 8 3 36 -7 63 -22 54 -31
63 -29 54 8 -9 38 -53 83 -91 96 -85 28 -140 -33 -205 -230 -18 -52 -31 -115
-33 -150 -4 -103 -14 -66 -20 78 -4 75 -11 166 -17 202 -9 58 -7 68 10 92 27
36 25 48 -6 48 -70 0 -94 -49 -94 -187 1 -54 7 -134 15 -178 8 -43 13 -80 12
-81 -1 -1 -24 3 -50 9 -37 8 -46 14 -42 26 18 45 27 121 23 194 -4 86 -22 140
-50 145 -17 3 -17 6 -39 -158 -14 -100 -20 -90 -44 82 -44 313 -41 683 10
1283 42 495 45 543 55 791 19 460 -18 665 -143 801 -64 70 -124 96 -232 100
-79 3 -100 0 -170 -25z m5751 -3779 c-8 -38 -21 -86 -30 -106 -14 -34 -18 -37
-54 -37 -21 0 -53 5 -70 11 l-32 11 16 36 c8 21 29 52 47 71 40 42 131 104
135 92 1 -4 -4 -40 -12 -78z"/>
<path d="M6006 9408 c-19 -31 -42 -144 -60 -308 -14 -126 -25 -253 -76 -905
-87 -1100 -208 -1773 -450 -2495 -37 -113 -194 -545 -348 -961 -401 -1081
-497 -1329 -759 -1958 -74 -179 -151 -368 -169 -419 -32 -87 -42 -150 -28
-165 12 -11 63 26 107 78 257 300 576 869 907 1617 l82 187 60 -50 c122 -101
254 -149 433 -156 205 -8 384 41 660 181 77 39 143 72 146 74 3 1 29 -78 59
-175 187 -625 314 -936 488 -1203 243 -373 593 -627 959 -696 68 -13 122 -15
238 -11 152 6 221 18 365 67 208 71 499 254 488 307 -6 26 -40 21 -255 -41
-265 -77 -341 -90 -513 -90 -219 0 -358 42 -545 165 -312 207 -536 560 -708
1119 -41 133 -198 680 -212 741 -6 25 8 35 320 228 584 361 873 515 1235 660
371 149 514 239 627 398 236 331 149 807 -214 1170 -89 89 -168 145 -198 141
-37 -5 -21 -62 79 -267 110 -226 143 -320 159 -443 31 -247 -58 -416 -274
-520 -52 -25 -175 -74 -274 -108 -463 -161 -807 -341 -1384 -726 -102 -68
-187 -122 -189 -120 -5 6 -77 271 -192 701 -227 860 -303 1257 -371 1940 -15
154 -22 336 -29 685 -12 664 -44 1087 -97 1295 -22 87 -40 104 -67 63z m40
-3488 c49 -231 168 -709 268 -1075 46 -170 88 -322 91 -337 7 -26 1 -32 -131
-118 -342 -223 -555 -295 -767 -257 -54 9 -118 29 -162 51 l-74 35 65 158
c345 834 518 1319 625 1753 l23 95 14 -70 c7 -38 29 -144 48 -235z"/>
<path d="M6040 5303 c-39 -50 -3 -123 60 -123 35 0 70 41 70 81 0 67 -88 95
-130 42z"/>
<path d="M6154 5115 c3 -27 10 -111 16 -185 6 -74 17 -158 25 -187 20 -67 19
-68 -11 -44 -15 12 -40 21 -55 21 -26 0 -29 -3 -29 -32 0 -18 10 -45 25 -63
l24 -32 -46 -6 c-49 -5 -77 -29 -70 -58 4 -14 -8 -12 -65 12 -39 16 -74 26
-79 23 -18 -11 -8 -53 18 -85 15 -18 50 -42 77 -54 48 -21 49 -22 23 -29 -15
-3 -100 -38 -189 -77 -158 -69 -167 -71 -292 -84 -71 -8 -133 -18 -139 -24
-15 -15 54 -30 168 -37 93 -6 106 -4 190 24 112 37 386 137 440 160 99 42 153
133 142 236 -3 28 -19 92 -36 141 -17 50 -37 132 -46 183 -18 106 -47 190 -76
224 l-20 23 5 -50z m-5 -622 l54 -6 -24 -18 c-27 -21 -55 -24 -65 -8 -3 6 -20
20 -38 31 -27 18 -28 19 -6 13 14 -4 49 -9 79 -12z"/>
<path d="M4786 8369 c-37 -29 -37 -89 0 -118 15 -12 34 -21 44 -21 10 0 29 9
44 21 37 29 37 89 0 118 -15 12 -34 21 -44 21 -10 0 -29 -9 -44 -21z"/>
<path d="M8526 6743 c154 -419 184 -525 184 -649 0 -70 -4 -89 -28 -135 -35
-68 -99 -117 -212 -165 -104 -44 -418 -151 -600 -205 -169 -51 -291 -114 -452
-233 -136 -102 -461 -372 -467 -388 -12 -34 108 37 364 217 328 230 362 247
691 344 222 65 436 141 550 197 115 56 189 129 223 219 33 86 26 233 -17 360
-67 200 -224 521 -260 533 -8 2 1 -34 24 -95z"/>
<path d="M9467 6099 c-29 -17 -19 -50 49 -159 92 -148 140 -245 184 -379 59
-179 74 -283 74 -511 -1 -235 -20 -382 -100 -770 -158 -759 -215 -1130 -218
-1400 -1 -165 10 -210 50 -210 79 0 256 432 431 1055 l29 100 71 36 c142 71
279 97 421 80 47 -6 89 -14 93 -18 22 -22 201 -553 243 -718 61 -243 76 -483
42 -693 -25 -157 4 -183 98 -89 66 66 127 186 163 322 24 92 27 116 27 305 1
227 -13 331 -78 588 -19 72 -31 132 -28 132 2 0 62 -20 131 -44 70 -24 181
-57 247 -72 106 -25 137 -28 284 -28 144 1 177 4 261 26 52 14 126 38 163 53
37 15 69 25 71 23 6 -6 166 -534 215 -710 41 -149 113 -449 108 -454 -2 -1
-82 -10 -178 -19 -332 -31 -531 -64 -610 -103 -47 -23 -48 -58 -3 -88 86 -58
446 -119 764 -131 139 -5 173 -3 216 11 112 37 183 139 191 275 12 218 -134
786 -328 1270 l-61 154 104 106 c221 225 368 479 481 828 80 251 88 412 18
374 -41 -22 -119 -123 -261 -336 -80 -121 -179 -263 -219 -315 -68 -87 -258
-290 -273 -290 -3 0 -32 57 -64 128 -106 234 -174 342 -217 342 -63 0 -66
-227 -6 -534 25 -126 28 -120 -71 -157 -122 -46 -171 -54 -316 -54 -175 1
-234 15 -744 173 l-53 17 -58 145 c-183 461 -414 876 -699 1258 -169 226 -303
350 -474 434 -100 50 -143 62 -170 47z m805 -1494 c104 -231 147 -338 142
-346 -3 -5 -18 -9 -33 -9 -49 0 -183 -39 -260 -75 -71 -34 -73 -34 -67 -13 36
133 84 421 101 611 l7 68 35 -73 c19 -40 53 -113 75 -163z"/>
<path d="M11779 5597 c-94 -35 -167 -107 -195 -190 -34 -102 3 -248 82 -316
67 -60 111 -76 204 -76 76 0 91 3 139 30 111 61 168 162 158 281 -9 114 -68
203 -170 256 -52 26 -166 34 -218 15z"/>
<path d="M10731 4734 c-12 -15 -21 -37 -21 -49 0 -38 37 -75 75 -75 38 0 75
37 75 75 0 38 -37 75 -75 75 -24 0 -39 -7 -54 -26z"/>
<path d="M8030 4699 c-204 -17 -402 -87 -565 -200 -79 -54 -189 -161 -184
-178 2 -6 49 15 109 50 290 170 495 231 775 231 166 1 229 -8 418 -54 70 -17
131 -28 134 -24 18 18 -116 89 -242 129 -134 42 -297 59 -445 46z"/>
<path d="M10834 4575 c-6 -15 9 -72 47 -172 23 -60 23 -63 6 -92 -24 -41 -22
-75 6 -89 12 -6 54 -13 92 -16 46 -3 115 -20 200 -50 177 -61 263 -77 445 -83
190 -7 249 6 300 64 36 41 28 53 -20 28 -50 -26 -115 -28 -259 -11 -168 21
-260 40 -381 78 l-95 31 48 14 c26 8 62 23 80 33 18 11 38 20 45 20 7 0 20 7
28 15 18 17 14 18 -19 6 -17 -7 -45 -4 -93 9 -67 17 -68 18 -41 29 43 17 99
12 172 -14 16 -6 17 -5 5 4 -8 6 -33 16 -55 23 l-40 12 40 7 c34 5 35 6 11 8
-33 1 -125 -15 -203 -35 -64 -17 -68 -17 -54 0 7 8 26 18 42 21 16 4 29 11 29
15 0 13 35 30 83 40 37 7 38 8 11 9 -17 1 -45 -4 -62 -10 -27 -9 -35 -8 -57 9
l-25 20 37 6 c41 7 130 -7 164 -25 11 -6 23 -8 26 -6 9 10 -108 47 -148 47
-22 0 -69 -7 -104 -16 -52 -13 -72 -24 -99 -54 l-35 -39 -40 62 c-22 34 -45
74 -52 90 -13 30 -27 35 -35 12z m414 -225 c54 -11 61 -15 49 -27 -7 -8 -34
-20 -60 -28 l-46 -14 2 27 c2 24 -3 28 -43 38 -38 10 -41 12 -20 16 27 6 28 5
118 -12z"/>
<path d="M8766 4509 c-20 -16 -26 -29 -26 -59 0 -30 6 -43 26 -59 15 -12 34
-21 44 -21 10 0 29 9 44 21 20 16 26 29 26 59 0 30 -6 43 -26 59 -15 12 -34
21 -44 21 -10 0 -29 -9 -44 -21z"/>
<path d="M7976 4484 c-103 -19 -275 -76 -343 -115 -141 -81 -226 -180 -269
-312 -22 -71 -26 -100 -26 -212 -1 -148 15 -222 63 -291 34 -50 105 -99 173
-119 137 -41 409 -42 711 -3 88 11 205 21 260 21 121 0 172 -19 239 -94 106
-118 99 -277 -18 -395 -83 -83 -159 -102 -559 -144 -234 -25 -272 -34 -272
-70 0 -71 323 -150 610 -150 235 0 344 40 481 175 64 63 90 98 123 165 57 116
77 231 61 344 -23 156 -98 299 -212 401 -168 151 -365 190 -723 145 -93 -11
-256 -24 -361 -27 l-191 -6 -6 24 c-10 36 -8 99 3 140 26 93 209 195 440 245
62 14 127 19 240 19 165 0 215 -8 368 -57 145 -46 177 -32 123 54 -73 116
-270 222 -484 263 -100 19 -324 18 -431 -1z"/>
<path d="M13526 3689 c-20 -16 -26 -29 -26 -59 0 -30 6 -43 26 -59 15 -12 34
-21 44 -21 10 0 29 9 44 21 20 16 26 29 26 59 0 30 -6 43 -26 59 -15 12 -34
21 -44 21 -10 0 -29 -9 -44 -21z"/>
<path d="M12269 3033 c-19 -58 -13 -149 14 -236 14 -42 22 -79 18 -81 -3 -2
-49 -12 -101 -21 -110 -20 -206 -54 -270 -95 -55 -35 -106 -87 -96 -97 4 -4
55 10 115 30 59 20 160 45 223 56 161 27 194 37 218 68 27 34 22 61 -30 192
-21 53 -41 116 -45 141 -13 92 -26 103 -46 43z"/>
<path d="M3046 2969 c-37 -29 -37 -89 0 -118 15 -12 34 -21 44 -21 10 0 29 9
44 21 37 29 37 89 0 118 -15 12 -34 21 -44 21 -10 0 -29 -9 -44 -21z"/>
<path d="M13366 2829 c-20 -16 -26 -29 -26 -59 0 -30 6 -43 26 -59 15 -12 34
-21 44 -21 10 0 29 9 44 21 20 16 26 29 26 59 0 30 -6 43 -26 59 -15 12 -34
21 -44 21 -10 0 -29 -9 -44 -21z"/>
<path d="M3185 2638 c14 -63 235 -653 287 -765 28 -59 78 -100 146 -118 77
-21 132 -47 223 -105 82 -53 166 -89 269 -117 99 -26 332 -23 470 6 255 54
564 180 757 307 99 66 180 144 304 294 123 148 203 221 283 260 118 56 268 57
389 3 81 -36 156 -93 336 -252 406 -360 712 -544 1056 -636 69 -18 107 -34
121 -50 12 -13 30 -25 40 -27 13 -2 18 -10 15 -23 -2 -11 -4 -45 -4 -75 -2
-92 57 -160 137 -160 52 0 58 25 16 58 -39 30 -60 77 -60 132 0 36 3 40 24 40
13 0 32 -3 41 -6 21 -8 71 -109 80 -160 11 -65 16 -74 35 -74 49 0 74 126 37
183 -17 26 -17 27 0 27 10 0 34 3 54 6 l35 6 -14 -84 c-17 -105 -7 -153 44
-202 61 -59 202 -91 292 -67 73 20 61 30 -92 76 -67 20 -98 35 -123 60 -36 36
-40 62 -27 172 6 42 11 52 29 57 26 7 85 70 85 90 0 8 29 23 68 36 37 12 156
66 264 121 261 131 325 153 448 152 75 0 107 -5 153 -22 98 -38 112 -58 227
-326 l22 -50 42 141 c23 77 51 156 62 175 24 42 109 94 176 108 69 15 164 14
231 -4 84 -22 170 -69 377 -205 200 -131 282 -175 403 -214 91 -30 257 -56
353 -56 473 1 1127 272 1674 696 114 89 383 345 435 416 53 73 18 57 -110 -48
-300 -247 -545 -413 -820 -556 -546 -282 -1019 -393 -1365 -322 -157 32 -253
80 -496 249 -275 190 -396 239 -589 238 -143 0 -245 -31 -338 -102 l-64 -48
-24 20 c-42 34 -137 77 -206 93 -93 22 -263 14 -358 -15 -38 -13 -176 -74
-306 -137 -312 -151 -369 -167 -609 -168 -132 -1 -197 4 -264 17 -347 70 -688
266 -1101 632 -197 175 -298 242 -430 286 -60 20 -89 24 -200 24 -115 0 -138
-4 -203 -27 -152 -55 -255 -141 -424 -353 -166 -209 -249 -274 -502 -395 -165
-80 -339 -142 -476 -170 -120 -24 -113 -25 -96 3 20 31 36 158 36 293 0 102
-2 116 -21 135 -26 26 -42 21 -44 -17 -1 -16 -9 -65 -19 -109 -9 -44 -20 -123
-24 -175 l-7 -95 -59 -8 c-32 -5 -61 -6 -64 -2 -3 3 24 49 61 103 65 95 77
124 57 137 -15 9 -92 -29 -120 -59 l-24 -27 -13 62 c-13 65 -34 106 -59 116
-29 11 -38 -15 -36 -98 l2 -81 -26 31 c-28 34 -58 40 -68 15 -3 -9 -6 -46 -6
-84 0 -67 0 -68 -29 -75 -22 -5 -40 0 -68 18 -74 47 -144 77 -205 90 -96 21
-105 28 -155 135 -216 463 -327 682 -346 682 -5 0 -5 -15 -2 -32z"/>
</g>
</svg>
